<?xml version="1.0" encoding="utf-8"?>
<!-- Generator: Adobe Illustrator 21.0.2, SVG Export Plug-In . SVG Version: 6.00 Build 0)  -->
<svg version="1.1"
	 id="svg2" xmlns:cc="http://creativecommons.org/ns#" xmlns:dc="http://purl.org/dc/elements/1.1/" xmlns:rdf="http://www.w3.org/1999/02/22-rdf-syntax-ns#" xmlns:svg="http://www.w3.org/2000/svg"
	 xmlns="http://www.w3.org/2000/svg" xmlns:xlink="http://www.w3.org/1999/xlink" x="0px" y="0px" viewBox="0 0 45 45"
	 style="enable-background:new 0 0 45 45;" xml:space="preserve">
<style type="text/css">
	.st0{clip-path:url(#SVGID_2_);}
	.st1{fill:#008406;}
	.st2{fill:#292F33;}
</style>
<g id="g10" transform="matrix(1.25,0,0,-1.25,0,45)">
	<g id="g12">
		<g>
			<defs>
				<rect id="SVGID_1_" x="-4.5" y="-4.5" width="45" height="45"/>
			</defs>
			<clipPath id="SVGID_2_">
				<use xlink:href="#SVGID_1_"  style="overflow:visible;"/>
			</clipPath>
			<g id="g14" class="st0">
				<g id="g20" transform="translate(3.9678,2.5537)">
					<path id="path22" d="M0,0c-1.8-1.8-3.5-2.9-3.9-2.5s0.7,2.1,2.5,3.9c1.8,1.8,3.5,2.9,3.9,2.5C2.9,3.5,1.8,1.8,0,0"/>
				</g>
				<g id="g24" transform="translate(6.4429,6.4424)">
					<path id="path26" class="st1" d="M0,0l-2.1,2.1c0,0-1.1-1.4-2.3-3.6c-0.9-1.7-1.3-2.7-1.3-2.7l0.7-0.7l0.7-0.7
						c0,0,1.1,0.4,2.7,1.3c2.2,1.2,3.6,2.3,3.6,2.3L0,0z"/>
				</g>
				<g id="g28" transform="translate(34.0195,34.0195)">
					<path id="path30" class="st2" d="M0,0c-3.5,3.5-18.2-10.3-18.9-11c-0.7-0.7-1.3-1.3-0.9-1.7c-0.4-0.4-1.1-1.1-2.1-2.1
						c-2.1-2.1-8.5-9.9-7.8-10.6c0.7-0.7,2.1-2.1,2.1-2.1s1.4-1.4,2.1-2.1s8.5,5.7,10.6,7.8c1,1,1.7,1.7,2.1,2.1
						c0.4-0.4,1,0.2,1.7,0.9C-10.3-18.2,3.5-3.5,0,0"/>
				</g>
				<g id="g32" transform="translate(23.0156,15.1494)">
					<path id="path34" class="st1" d="M0,0c0.1,0.1,0.4,0.4,0.8,0.8L-7,8.6C-7.5,8.2-7.8,8-7.9,7.9c-0.7-0.7-1.3-1.3-0.9-1.7
						c0.7-0.7,3.5-3.5,3.5-3.5s2.8-2.8,3.5-3.5C-1.3-1.3-0.7-0.7,0,0"/>
				</g>
				<g id="g36" transform="translate(31.2119,33.9985)">
					<path id="path38" class="st1" d="M0,0c-0.9,0.9-2.2,1.9-3.9,1c-1.8-0.9-7.3-4.4-9.9-7c-1.3-1.3-1.2-2.1-0.8-2.2
						c0.8-0.1,1.4-0.1,2.1,0.7c0.8,0.8,0.9,2,0.9,2s3.1,2.3,5.5,3.8C-3.7-0.2-2.8,0-2-0.8S0,0,0,0"/>
				</g>
				<g id="g40" transform="translate(28.8701,33.5127)">
					<path id="path42" class="st1" d="M0,0l4.6-4.6c0.4,0.7,0.6,1.4,0.8,2L2,0.8C1.4,0.6,0.7,0.4,0,0"/>
				</g>
			</g>
		</g>
	</g>
</g>
</svg>
