<svg id="Layer_1" data-name="Layer 1" xmlns="http://www.w3.org/2000/svg" viewBox="0 0 145.96 157.61"><defs><style>.cls-1{fill:#fefcfc;}.cls-2{fill:#f3493c;}.cls-3{fill:#f3493d;}</style></defs><title>Heat</title><path class="cls-1" d="M283.1,323.14c-11.25-4.15-20.89-7.56-30.4-11.29-4.5-1.76-6.26-1-7,4.15-1.37,10.09-3.56,20.07-5.6,31.09,3.21-1.53,5.8-2.22,7.7-3.76,7.72-6.23,10.16-.87,11.83,5.37,2.47,9.21-2.48,16.74-6.48,24.25-6.84,12.86-8.5,26.22-1.29,38.89,8.92,15.68,10.57,30.16-1.87,44.52a14.82,14.82,0,0,0-1,1.7c-2.7,4.16.92,5.67,3.43,6.35,3.27.89,5.62,6.66,10.12,2.07,13-13.21,17.14-33.44,8.28-50.24-8.17-15.5-9-29.58.64-44.66,6.42-10,7.18-21.71,1.62-32.26-3.75-7.12-1.7-10,4.45-12.54C279,326.18,280.21,325.07,283.1,323.14Zm51.83,0c-11.25-4.15-20.81-7.79-30.46-11.17-2.4-.84-5.74-3.44-6.64,2-1.79,10.77-3.75,21.51-5.62,32.19,6.22.17,10.17-8.44,14.95-3.67,5.9,5.9,6.72,14.15,2.76,22.18-1.61,3.26-2.9,6.7-4.73,9.83-2.94,5,1.51,5.81,4.15,6.74,3.12,1.11,6.66,6.53,10,.74,7.63-13.27,13.43-27.17,5-42.11-3.76-6.63-2.68-10.08,4.14-12.59C330.17,326.64,331.67,325.27,334.93,323.16Zm51.16-.22c-11.15-4.07-21.3-7.67-31.36-11.5-3.38-1.28-4.7-.48-5.27,3.09-1.73,10.64-3.73,21.23-5.5,31.13,6.19,1.72,9.83-8.44,15.29-2.78,5.25,5.44,6.16,13.06,3,20.47a86.07,86.07,0,0,1-5.12,10.73c-2.27,3.74-.63,5.73,2.65,6.58,3.63.95,7.63,7.14,11,1.64,7.55-12.34,13.81-25.9,6.23-40.16-4.59-8.64-3.37-13,5.36-16.13C383.38,325.62,384.2,324.5,386.09,322.94Z" transform="translate(-240.13 -310.63)"/><path class="cls-2" d="M283.1,323.14c-2.89,1.93-4.1,3-5.52,3.65-6.16,2.59-8.2,5.43-4.45,12.54,5.55,10.55,4.79,22.24-1.62,32.26-9.65,15.08-8.81,29.16-.64,44.66,8.86,16.8,4.68,37-8.28,50.24-4.51,4.6-6.86-1.18-10.12-2.07-2.5-.68-6.13-2.19-3.43-6.35a14.82,14.82,0,0,1,1-1.7c12.43-14.36,10.78-28.83,1.87-44.52-7.2-12.67-5.55-26,1.29-38.89,4-7.51,8.94-15,6.48-24.25-1.67-6.23-4.11-11.6-11.83-5.37-1.91,1.54-4.49,2.23-7.7,3.76,2-11,4.24-21,5.6-31.09.7-5.19,2.46-5.92,7-4.15C262.21,315.58,271.85,319,283.1,323.14Z" transform="translate(-240.13 -310.63)"/><path class="cls-3" d="M334.93,323.16c-3.26,2.1-4.75,3.47-6.51,4.12-6.82,2.51-7.9,6-4.14,12.59,8.47,14.94,2.67,28.83-5,42.11-3.33,5.79-6.87.37-10-.74-2.64-.94-7.09-1.71-4.15-6.74,1.83-3.13,3.12-6.56,4.73-9.83,4-8,3.14-16.28-2.76-22.18-4.77-4.77-8.73,3.83-14.95,3.67,1.88-10.69,3.83-21.43,5.62-32.19.9-5.42,4.25-2.82,6.64-2C314.11,315.38,323.67,319,334.93,323.16Z" transform="translate(-240.13 -310.63)"/><path class="cls-3" d="M386.09,322.94c-1.89,1.56-2.71,2.68-3.79,3.07-8.72,3.15-10,7.49-5.36,16.13,7.58,14.26,1.32,27.82-6.23,40.16-3.36,5.49-7.36-.69-11-1.64-3.27-.85-4.92-2.84-2.65-6.58a86.07,86.07,0,0,0,5.12-10.73c3.2-7.41,2.29-15-3-20.47-5.46-5.66-9.1,4.49-15.29,2.78,1.77-9.9,3.77-20.49,5.5-31.13.58-3.57,1.9-4.37,5.27-3.09C364.79,315.27,374.94,318.87,386.09,322.94Z" transform="translate(-240.13 -310.63)"/></svg>