<?xml version="1.0" encoding="utf-8"?>
<!-- Generator: Adobe Illustrator 21.0.2, SVG Export Plug-In . SVG Version: 6.00 Build 0)  -->
<svg version="1.1" id="Layer_1" xmlns="http://www.w3.org/2000/svg" xmlns:xlink="http://www.w3.org/1999/xlink" x="0px" y="0px"
	 viewBox="0 0 265.1 265.1" style="enable-background:new 0 0 265.1 265.1;" xml:space="preserve">
<style type="text/css">
	.st0{fill:#DD2F04;}
	.st1{fill:#FD5621;}
	.st2{fill:#FEBD08;}
</style>
<title>Flame</title>
<path class="st0" d="M116.3,27.9c16.8,4.5,29.3,14.6,41.3,25.1c26.8,23.3,48.4,50.1,55.9,86c9.8,46.9-23,92-71.2,97.9
	c-47.2,5.8-90-30-92.4-77c-0.8-16.5,5.2-30.6,14.7-43.3c10.4-14,21.8-27.2,32.7-40.8C108.2,61.9,117.5,47.3,116.3,27.9z M133.3,93.5
	c-1.7,18-13.1,27-22.4,37.7c-12.3,14.2-29.3,26.7-27.7,48.5c1.4,19,10.5,33.7,28.8,41.9c19.3,8.6,37.2,5.6,52.7-7.4
	c14.7-12.3,20.5-29,16.1-48.2C174.3,137,155.6,115.8,133.3,93.5L133.3,93.5z"/>
<path class="st1" d="M133.3,93.5c22.3,22.3,40.9,43.5,47.5,72.4c4.4,19.2-1.5,36-16.1,48.2c-15.5,13-33.4,16-52.7,7.4
	c-18.3-8.2-27.4-22.9-28.8-41.9c-1.6-21.8,15.3-34.2,27.7-48.5C120.2,120.5,131.7,111.6,133.3,93.5z M134.3,150.3
	c-3.3,5-6,9.7-9.3,13.9s-7,8.4-10.7,12.4c-10.8,11.8-12.3,22.8-4.4,33.2s22.1,13.6,34.6,7.8c13.4-6.3,18.7-17.1,14.5-31.5
	S145.9,160.2,134.3,150.3L134.3,150.3z"/>
<path class="st2" d="M134.3,150.3c11.7,9.9,20.4,21.5,24.6,35.9s-1,25.2-14.5,31.5c-12.5,5.9-26.8,2.6-34.6-7.8s-6.3-21.4,4.4-33.2
	c3.7-4,7.4-8.1,10.7-12.4S131,155.3,134.3,150.3z"/>
</svg>
