<svg id="Layer_1" data-name="Layer 1" xmlns="http://www.w3.org/2000/svg" viewBox="0 0 299.69 732.39"><defs><style>.cls-1{fill:#87c8ee;}.cls-2{fill:#5ab2e4;}.cls-3{fill:#9dcb3c;}.cls-4{fill:#ebea6c;}</style></defs><title>tube</title><g id="w6hpaI.tif"><path class="cls-1" d="M180.86,138.42a33.25,33.25,0,0,1-32.63-28.6,3.12,3.12,0,0,0-.44-.86v-7.49a4.78,4.78,0,0,0,.45-1.11c2.17-15.91,16-28.35,32-28.37Q297.64,71.9,415,72c13.11,0,25.3,8.69,30.1,20.93,1.1,2.8,1.4,5.76,2.38,8.56V109c-.63,2.29-1.14,4.63-1.9,6.88a33.19,33.19,0,0,1-31.17,22.58Z" transform="translate(-147.8 -71.95)"/><path class="cls-1" d="M414,171.89c0,.83,0,1.66,0,2.5q0,256.09,0,512.18a116.48,116.48,0,0,1-57.93,101.88,110.06,110.06,0,0,1-41.29,14.65c-33.54,4.57-63.82-3.52-90.3-24.75-21-16.8-34.36-38.51-40.56-64.63a99.11,99.11,0,0,1-2.79-22.92q0-123,0-246,0-134.72,0-269.45c0-1.16,0-2.33,0-3.49ZM214.23,490.6q0,97.38,0,194.76a92.9,92.9,0,0,0,1.67,18.76c4.27,20.77,14.64,37.84,31.73,50.65,13.88,10.4,29.68,15.39,46.81,16.45a75.21,75.21,0,0,0,19.52-1.6c18.53-3.75,34.29-12.53,46.75-26.88,14.1-16.24,20.34-35.4,20.35-56.66q.08-197.51.08-395c0-2.25-.53-2.85-2.83-2.85q-80.53.11-161.05,0c-2.6,0-3.06.72-3.05,3.14Q214.28,391,214.23,490.6Z" transform="translate(-147.8 -71.95)"/><path class="cls-2" d="M414,171.89H181.26c-.69-3.19-.35-6.43-.37-9.65-.05-7.94,0-15.88,0-23.83H414.42q0,14.39,0,28.79A21.92,21.92,0,0,1,414,171.89Z" transform="translate(-147.8 -71.95)"/><path class="cls-3" d="M214.23,490.6q0-99.63-.06-199.25c0-2.43.45-3.15,3.05-3.14q80.53.14,161.05,0c2.3,0,2.83.6,2.83,2.85q-.08,197.51-.08,395c0,21.26-6.25,40.42-20.35,56.66-12.46,14.35-28.22,23.13-46.75,26.88a75.21,75.21,0,0,1-19.52,1.6c-17.13-1.06-32.94-6.05-46.81-16.45-17.09-12.81-27.46-29.88-31.73-50.65a92.9,92.9,0,0,1-1.67-18.76Q214.26,588,214.23,490.6Zm92-85.49c-23.15-.67-41.55,18.44-41.73,41-.18,23,18.09,42,41.2,41.88,23.89-.15,41.49-17.5,41.76-41.38A40.63,40.63,0,0,0,306.23,405.1ZM272.71,588c13.78-.72,24.8-11.29,24.77-25a24.82,24.82,0,1,0-49.64.1C247.88,576.81,259,587.3,272.71,588Zm41.67,66.89c-10.58-.22-16.84,6.78-16.6,16.57.26,10.75,6.51,16.2,16.49,16.29,10.29.09,16.21-6.66,16.45-16.3C331,661.46,323.53,654.3,314.38,654.84Z" transform="translate(-147.8 -71.95)"/><path class="cls-4" d="M306.23,405.1a40.63,40.63,0,0,1,41.24,41.48c-.27,23.88-17.87,41.23-41.76,41.38-23.12.15-41.38-18.87-41.2-41.88C264.68,423.54,283.08,404.43,306.23,405.1Z" transform="translate(-147.8 -71.95)"/><path class="cls-4" d="M272.71,588C259,587.3,247.88,576.81,247.85,563a24.82,24.82,0,1,1,49.64-.1C297.52,576.66,286.49,587.23,272.71,588Z" transform="translate(-147.8 -71.95)"/><path class="cls-4" d="M314.38,654.84c9.15-.54,16.59,6.62,16.35,16.56-.24,9.64-6.16,16.39-16.45,16.3-10-.08-16.23-5.54-16.49-16.29C297.55,661.63,303.8,654.62,314.38,654.84Z" transform="translate(-147.8 -71.95)"/></g></svg>