<svg id="Layer_1" data-name="Layer 1" xmlns="http://www.w3.org/2000/svg" viewBox="0 0 330.05 232.8"><title>Blk_Arrow</title><g id="BLc6Vz"><path d="M454.06,346.24v88.58c-1.37,3.4-3.07,6.53-6.63,8.16a19.27,19.27,0,0,1-8.23,1.44H279.51c-4,0-4,0-4,3.93q0,20.69,0,41.37a27.68,27.68,0,0,1-1.21,9.36c-1.31,3.71-3.62,6.29-7.9,6.72-4.5.45-8-1.58-11.34-4.09-5.25-4-10.39-8.09-15.62-12.09q-29.29-22.39-58.61-44.76c-15.11-11.59-30.31-23.09-44.94-35.3-4.69-3.91-9.83-7.53-11.88-13.76v-7.38a24,24,0,0,1,6.83-9.85L195,325.49c16-13.22,31.85-26.53,47.92-39.61,4.55-3.7,8.55-8.1,13.75-11,7.82-4.39,14.9-.45,15.19,8.52,0,.79,0,1.58,0,2.37q0,23.06,0,46.13c0,4.26,0,4.28,4.2,4.28l165.26,0c5.7,0,9.52,2.49,11.72,7.7Z" transform="translate(-124.01 -273.07)"/></g></svg>